<?xml version="1.0" standalone="no"?>
<!DOCTYPE svg PUBLIC "-//W3C//DTD SVG 20010904//EN"
 "http://www.w3.org/TR/2001/REC-SVG-20010904/DTD/svg10.dtd">
<svg version="1.0" xmlns="http://www.w3.org/2000/svg"
 width="1000.000000pt" height="1000.000000pt" viewBox="0 0 1000.000000 1000.000000"
 preserveAspectRatio="xMidYMid meet">
<metadata>
Created by potrace 1.14, written by Peter Selinger 2001-2017
</metadata>
<g transform="translate(0.000000,1000.000000) scale(0.100000,-0.100000)"
fill="#000000" stroke="none">
<path d="M2519 9996 c-2 -2 -37 -6 -78 -10 -64 -5 -131 -14 -236 -32 -16 -3
-59 -12 -95 -20 -36 -9 -76 -18 -89 -20 -30 -6 -238 -72 -266 -84 -11 -5 -64
-27 -117 -49 -299 -125 -584 -317 -823 -556 -143 -142 -173 -175 -235 -255
-19 -25 -37 -47 -40 -50 -7 -7 -47 -64 -93 -134 -119 -179 -225 -395 -298
-604 -71 -208 -113 -397 -137 -627 -9 -90 -9 -5006 0 -5105 23 -238 96 -551
167 -715 4 -11 23 -56 41 -100 18 -44 56 -123 83 -175 28 -52 55 -105 61 -117
6 -13 14 -23 19 -23 4 0 7 -5 7 -11 0 -15 140 -218 214 -309 57 -71 286 -306
351 -361 424 -355 945 -574 1490 -626 105 -10 5016 -10 5120 0 44 4 105 12
135 17 104 18 115 20 135 24 11 3 52 12 92 20 83 18 265 76 370 117 68 27 293
135 338 162 62 38 181 113 190 119 6 5 50 38 99 74 49 36 105 80 125 97 58 50
274 268 314 317 359 436 569 934 624 1480 10 98 10 5033 0 5125 -8 77 -13 115
-21 160 -3 17 -8 48 -12 70 -3 22 -16 84 -30 138 -99 393 -254 713 -503 1036
-68 88 -298 326 -386 399 -27 23 -56 47 -64 53 -77 65 -282 196 -422 272 -198
106 -539 226 -714 252 -22 4 -56 10 -75 15 -19 5 -64 12 -100 16 -36 4 -76 9
-90 12 -27 6 -5044 14 -5051 8z"/>
</g>
</svg>
