<?xml version="1.0" standalone="no"?>
<!DOCTYPE svg PUBLIC "-//W3C//DTD SVG 20010904//EN"
 "http://www.w3.org/TR/2001/REC-SVG-20010904/DTD/svg10.dtd">
<svg version="1.0" xmlns="http://www.w3.org/2000/svg"
 width="1000.000000pt" height="1000.000000pt" viewBox="0 0 1000.000000 1000.000000"
 preserveAspectRatio="xMidYMid meet">
<metadata>
Created by potrace 1.14, written by Peter Selinger 2001-2017
</metadata>
<g transform="translate(0.000000,1000.000000) scale(0.100000,-0.100000)"
fill="#000000" stroke="none">
<path d="M2565 9993 c-877 -53 -1643 -493 -2121 -1218 -179 -272 -320 -613
-385 -927 -56 -275 -52 -119 -57 -2743 -3 -2518 -2 -2615 39 -2853 95 -556
355 -1059 753 -1458 370 -369 828 -620 1331 -729 298 -64 93 -60 2865 -60
1994 0 2536 3 2615 13 632 81 1163 339 1600 777 438 437 696 968 777 1600 10
79 13 621 13 2620 l0 2520 -23 143 c-97 609 -348 1109 -766 1528 -213 213
-420 362 -691 499 -328 166 -652 257 -1020 284 -125 10 -4778 14 -4930 4z
m3745 -2204 c0 -12 -34 -205 -75 -429 -41 -224 -75 -410 -75 -414 0 -3 -484
-7 -1076 -8 l-1076 -3 -174 -630 c-96 -346 -174 -630 -174 -631 0 0 145 -4
323 -8 177 -3 332 -9 343 -12 19 -5 28 6 67 80 291 547 798 936 1397 1071 259
59 611 75 870 41 627 -83 1114 -406 1385 -919 32 -59 55 -110 52 -113 -3 -3
-169 -110 -368 -238 l-363 -233 -49 76 c-185 284 -447 468 -749 525 -484 92
-952 -95 -1228 -491 l-48 -67 78 -56 c88 -62 172 -139 246 -226 132 -154 228
-356 273 -573 79 -380 29 -839 -130 -1189 l-28 -64 83 -39 c265 -124 621 -142
901 -46 238 82 437 238 587 462 33 50 63 91 67 92 10 5 634 -401 639 -416 3
-10 0 -11 -16 -2 -25 13 -43 14 -23 2 12 -8 12 -12 2 -25 -7 -9 -18 -13 -25
-9 -6 3 -7 2 -3 -3 5 -5 13 -10 18 -10 19 -3 19 -4 7 -18 -9 -9 -15 -10 -20
-3 -8 13 -48 20 -48 9 0 -17 13 -22 27 -10 11 8 12 7 7 -6 -3 -9 -11 -16 -18
-16 -6 0 -17 -9 -24 -20 -7 -12 -17 -18 -22 -15 -5 3 -12 0 -15 -6 -4 -5 -14
-8 -22 -5 -8 3 -11 1 -8 -4 3 -6 14 -10 23 -10 14 0 14 -2 3 -9 -7 -5 -10 -15
-7 -22 4 -8 1 -6 -7 3 -13 17 -16 16 -43 -8 -16 -15 -24 -23 -17 -20 6 3 14 2
18 -3 3 -6 -6 -8 -21 -5 -21 4 -25 2 -20 -11 3 -9 2 -13 -4 -10 -6 3 -10 1
-10 -4 0 -6 -5 -11 -11 -11 -5 0 -8 4 -5 9 4 5 -2 8 -11 7 -9 -2 -19 -8 -21
-14 -2 -7 -9 -9 -15 -5 -7 4 -6 -1 2 -10 11 -14 11 -20 1 -32 -10 -12 -10 -15
1 -16 8 -1 1 -4 -16 -8 -16 -4 -29 -12 -28 -19 4 -15 -28 -4 -46 17 -11 14
-12 13 -6 -8 5 -15 3 -21 -3 -17 -6 3 -9 -2 -7 -11 1 -10 8 -17 14 -16 6 2 11
-2 11 -7 0 -15 -21 -12 -41 6 -13 12 -17 12 -15 2 1 -7 4 -18 8 -23 4 -6 -1
-12 -10 -13 -44 -5 -56 -10 -58 -25 -1 -9 2 -17 8 -17 6 0 7 7 4 16 -6 14 -4
15 9 4 15 -12 15 -14 0 -23 -9 -5 -22 -6 -30 -4 -7 3 -15 -3 -18 -14 -6 -21 8
-27 16 -6 3 6 6 7 6 1 1 -5 -6 -19 -15 -30 -8 -10 -12 -13 -8 -5 5 11 3 13
-10 8 -14 -6 -16 -3 -11 16 7 22 7 22 -8 2 -8 -11 -13 -23 -10 -28 2 -4 -1 -6
-9 -5 -7 2 -12 -5 -12 -14 1 -10 -5 -18 -13 -18 -8 0 -11 -4 -8 -10 3 -5 2
-10 -4 -10 -6 0 -9 -6 -7 -12 1 -7 1 -10 -1 -5 -3 4 -12 7 -21 7 -15 0 -15 2
-2 10 13 8 12 10 -2 10 -10 0 -18 -5 -18 -11 0 -5 -6 -7 -12 -4 -7 4 -5 0 5
-8 19 -15 11 -27 -27 -41 -16 -5 -16 -9 -5 -23 8 -9 9 -14 2 -10 -6 4 -14 1
-17 -5 -3 -7 -3 -1 -1 15 3 19 -1 27 -12 27 -8 0 -13 -6 -10 -13 5 -14 -26
-62 -40 -62 -34 -3 -53 -19 -53 -46 0 -31 -19 -41 -21 -11 -1 16 -2 16 -6 0
-2 -10 -9 -18 -14 -18 -5 0 -9 -6 -9 -14 0 -8 -9 -18 -20 -21 -11 -4 -18 -10
-15 -15 3 -4 -2 -11 -11 -14 -10 -4 -13 -1 -9 7 3 6 0 4 -7 -5 -11 -15 -13
-15 -25 0 -10 14 -12 9 -8 -33 l4 -50 -13 35 c-11 29 -14 31 -19 15 -4 -11
-10 -27 -13 -35 -3 -9 1 -8 10 4 14 18 15 18 13 -2 0 -11 -4 -19 -8 -16 -4 2
-15 -3 -23 -12 -14 -13 -16 -14 -16 0 0 8 -5 18 -10 21 -6 4 -10 3 -9 -2 1 -4
0 -11 -1 -15 -1 -5 -4 -11 -5 -15 -13 -45 -29 -73 -35 -63 -5 8 -10 6 -20 -5
-7 -8 -18 -15 -24 -15 -6 0 -3 5 7 11 9 5 17 17 17 26 0 8 6 13 13 10 7 -3 19
4 25 14 8 12 8 19 2 19 -5 0 -10 -4 -10 -10 0 -5 -9 -10 -19 -10 -17 0 -35
-15 -36 -30 -2 -21 -25 -42 -39 -37 -10 4 -15 3 -11 -3 3 -6 -2 -10 -12 -11
-16 0 -16 -1 2 -9 17 -7 17 -9 3 -9 -25 -1 -33 3 -30 12 1 5 -2 6 -8 2 -6 -3
-8 -10 -5 -15 12 -19 -176 -35 -410 -34 -265 0 -393 16 -611 74 -183 49 -414
147 -555 236 -24 15 -48 27 -54 27 -5 0 -41 -19 -80 -43 -169 -105 -448 -215
-670 -264 -404 -90 -894 -92 -1316 -5 -433 89 -862 306 -1100 556 l-46 48 228
380 c125 209 230 385 232 390 2 6 41 -25 87 -68 195 -184 503 -343 798 -413
178 -42 312 -56 527 -57 208 0 324 12 485 52 64 16 204 65 218 76 2 1 -14 31
-34 65 -97 166 -188 389 -239 589 -59 228 -92 562 -79 782 l6 116 -53 6 c-30
4 -381 7 -781 7 -401 0 -728 2 -728 4 0 5 789 2986 795 3004 4 9 308 12 1480
12 l1475 0 0 -21z m935 -5158 c-3 -6 -11 -11 -16 -11 -5 0 -4 6 3 14 14 16 24
13 13 -3z m-102 -95 c3 -8 0 -17 -7 -19 -10 -4 -12 1 -9 14 6 23 9 24 16 5z"/>
<path d="M7870 3219 c0 -5 5 -7 10 -4 6 3 10 8 10 11 0 2 -4 4 -10 4 -5 0 -10
-5 -10 -11z"/>
<path d="M7650 3056 c0 -2 7 -7 16 -10 8 -3 12 -2 9 4 -6 10 -25 14 -25 6z"/>
<path d="M7620 3020 c0 -5 4 -10 9 -10 6 0 13 5 16 10 3 6 -1 10 -9 10 -9 0
-16 -4 -16 -10z"/>
<path d="M7043 2535 c0 -8 4 -12 9 -9 5 3 6 10 3 15 -9 13 -12 11 -12 -6z"/>
</g>
</svg>
