<?xml version="1.0" standalone="no"?>
<!DOCTYPE svg PUBLIC "-//W3C//DTD SVG 20010904//EN"
 "http://www.w3.org/TR/2001/REC-SVG-20010904/DTD/svg10.dtd">
<svg version="1.0" xmlns="http://www.w3.org/2000/svg"
 width="1200.000000pt" height="1200.000000pt" viewBox="0 0 1200.000000 1200.000000"
 preserveAspectRatio="xMidYMid meet">
<metadata>
Created by potrace 1.14, written by Peter Selinger 2001-2017
</metadata>
<g transform="translate(0.000000,1200.000000) scale(0.100000,-0.100000)"
fill="#000000" stroke="none">
<path d="M3060 11989 c-345 -18 -693 -95 -1010 -221 -834 -332 -1486 -985
-1819 -1821 -134 -335 -201 -658 -222 -1062 -15 -307 -7 -5845 10 -5975 70
-561 236 -1023 527 -1460 123 -185 240 -327 409 -495 540 -541 1203 -855 1975
-937 185 -19 5969 -19 6145 0 783 87 1467 416 1996 958 522 536 826 1187 911
1949 19 176 19 5960 0 6145 -69 646 -300 1214 -699 1715 -112 141 -357 387
-498 498 -496 394 -1031 614 -1695 698 -111 14 -5781 22 -6030 8z m4520 -2625
c0 -8 -178 -979 -185 -1011 l-5 -23 -1289 0 -1288 0 -37 -132 c-20 -73 -115
-416 -210 -763 l-173 -630 403 -6 c223 -3 407 -9 411 -12 3 -4 31 39 61 95
388 732 1074 1207 1927 1335 151 22 660 26 795 5 315 -48 541 -116 782 -237
327 -165 593 -402 790 -705 65 -99 174 -298 166 -304 -14 -12 -869 -557 -881
-561 -10 -4 -23 9 -42 42 -54 92 -167 235 -252 319 -182 179 -409 299 -676
356 -128 27 -380 29 -527 5 -376 -63 -687 -254 -920 -566 -64 -86 -79 -113
-63 -118 38 -13 222 -165 308 -254 211 -220 344 -487 407 -817 20 -103 23
-149 23 -392 0 -300 -9 -384 -65 -612 -30 -118 -101 -322 -140 -397 l-20 -41
67 -34 c149 -74 317 -118 525 -137 552 -49 1049 210 1332 694 18 31 34 46 42
43 11 -4 864 -547 882 -562 6 -4 -120 -229 -174 -309 -272 -406 -677 -705
-1159 -856 -94 -29 -259 -66 -385 -85 -165 -26 -634 -26 -805 -1 -367 55 -695
168 -989 341 l-96 57 -53 -34 c-203 -130 -498 -254 -770 -323 -495 -126 -1106
-134 -1645 -23 -417 86 -820 260 -1112 480 -115 87 -272 229 -268 243 2 9 537
911 554 935 2 2 44 -34 94 -80 301 -276 668 -453 1108 -534 436 -81 967 -42
1274 92 l57 25 -30 52 c-96 163 -195 383 -247 546 -107 335 -147 608 -147
1006 l0 261 -104 7 c-57 3 -477 6 -933 6 -785 0 -829 1 -824 18 3 9 217 818
476 1797 259 979 473 1786 475 1793 4 9 368 12 1780 12 976 0 1775 -3 1775 -6z"/>
</g>
</svg>
