<?xml version="1.0" standalone="no"?>
<!DOCTYPE svg PUBLIC "-//W3C//DTD SVG 20010904//EN"
 "http://www.w3.org/TR/2001/REC-SVG-20010904/DTD/svg10.dtd">
<svg version="1.0" xmlns="http://www.w3.org/2000/svg"
 width="512.000000pt" height="512.000000pt" viewBox="0 0 512.000000 512.000000"
 preserveAspectRatio="xMidYMid meet">
<metadata>
Created by potrace 1.14, written by Peter Selinger 2001-2017
</metadata>
<g transform="translate(0.000000,512.000000) scale(0.100000,-0.100000)"
fill="#000000" stroke="none">
<path d="M1115 5110 c-22 -5 -53 -11 -70 -13 -71 -13 -95 -20 -180 -48 -366
-124 -669 -427 -793 -794 -71 -210 -67 -102 -67 -1685 0 -1241 4 -1513 21
-1541 2 -3 6 -21 9 -39 11 -64 59 -196 102 -282 161 -321 458 -565 802 -660
171 -47 165 -47 1626 -47 759 0 1400 4 1425 9 25 4 61 10 80 13 19 2 62 12 96
21 443 116 796 470 910 910 43 166 43 154 40 1641 -2 1574 3 1450 -68 1660
-123 367 -427 669 -798 795 -211 72 -135 69 -1695 68 -770 0 -1418 -4 -1440
-8z"/>
</g>
</svg>
