<?xml version="1.0" encoding="UTF-8" standalone="no"?>
<!DOCTYPE svg PUBLIC "-//W3C//DTD SVG 1.1//EN" "http://www.w3.org/Graphics/SVG/1.1/DTD/svg11.dtd">
<svg width="100%" height="100%" viewBox="0 0 3000 3000" version="1.1" xmlns="http://www.w3.org/2000/svg" xmlns:xlink="http://www.w3.org/1999/xlink" xml:space="preserve" xmlns:serif="http://www.serif.com/" style="fill-rule:evenodd;clip-rule:evenodd;stroke-linejoin:round;stroke-miterlimit:2;">
    <rect x="0" y="0" width="3000" height="3000" style="fill:rgb(12,16,27);"/>
    <g transform="matrix(1.4556,0,0,3.59839,-677.71,-3361.64)">
        <path d="M1790.38,1282.73C1790.38,1254.96 1734.64,1232.41 1665.99,1232.41L1326.2,1232.41C1257.55,1232.41 1201.81,1254.96 1201.81,1282.73C1201.81,1310.5 1257.55,1333.05 1326.2,1333.05L1665.99,1333.05C1734.64,1333.05 1790.38,1310.5 1790.38,1282.73Z" style="fill:rgb(46,89,199);"/>
    </g>
    <path d="M1853.73,440.034C1978.13,440.034 2079.14,541.038 2079.14,665.448C2079.14,789.857 1978.13,890.861 1853.73,890.861L920.861,890.861L920.861,1244.59C920.861,1369 819.857,1470 695.448,1470C571.038,1470 470.034,1369 470.034,1244.59L470.034,888.802C470.034,641.12 671.12,440.034 918.802,440.034L1853.73,440.034Z" style="fill:rgb(201,216,254);"/>
    <g transform="matrix(-1,1.22465e-16,-1.22465e-16,-1,3000,3000)">
        <path d="M1853.73,440.034C1978.13,440.034 2079.14,541.038 2079.14,665.448C2079.14,789.857 1978.13,890.861 1853.73,890.861L920.861,890.861L920.861,1244.59C920.861,1369 819.857,1470 695.448,1470C571.038,1470 470.034,1369 470.034,1244.59L470.034,888.802C470.034,641.12 671.12,440.034 918.802,440.034L1853.73,440.034Z" style="fill:rgb(201,216,254);"/>
    </g>
    <g transform="matrix(1.4556,0,0,3.59839,-677.71,-2869.91)">
        <path d="M1790.38,1282.73C1790.38,1254.96 1734.64,1232.41 1665.99,1232.41L1326.2,1232.41C1257.55,1232.41 1201.81,1254.96 1201.81,1282.73C1201.81,1310.5 1257.55,1333.05 1326.2,1333.05L1665.99,1333.05C1734.64,1333.05 1790.38,1310.5 1790.38,1282.73Z" style="fill:rgb(46,89,199);"/>
    </g>
</svg>
