<?xml version="1.0" encoding="UTF-8" standalone="no"?>
<!DOCTYPE svg PUBLIC "-//W3C//DTD SVG 1.1//EN" "http://www.w3.org/Graphics/SVG/1.1/DTD/svg11.dtd">
<svg width="100%" height="100%" viewBox="0 0 3000 3000" version="1.1" xmlns="http://www.w3.org/2000/svg" xmlns:xlink="http://www.w3.org/1999/xlink" xml:space="preserve" xmlns:serif="http://www.serif.com/" style="fill-rule:evenodd;clip-rule:evenodd;stroke-linejoin:round;stroke-miterlimit:2;">
    <rect x="0" y="0" width="3000" height="3000" style="fill:rgb(19,19,19);"/>
    <g transform="matrix(1.31145,0,0,1.4556,-721.592,-570.602)">
        <path d="M2135.6,792.351C2135.6,749.616 2097.09,714.921 2049.66,714.921L994.574,714.921C947.142,714.921 908.633,749.616 908.633,792.351L908.633,947.211C908.633,989.946 947.142,1024.64 994.574,1024.64L2049.66,1024.64C2097.09,1024.64 2135.6,989.946 2135.6,947.211L2135.6,792.351Z" style="fill:white;"/>
    </g>
    <g transform="matrix(1.31145,0,0,1.4556,-270.766,1038.5)">
        <path d="M2135.6,792.351C2135.6,749.616 2097.09,714.921 2049.66,714.921L994.574,714.921C947.142,714.921 908.633,749.616 908.633,792.351L908.633,947.211C908.633,989.946 947.142,1024.64 994.574,1024.64L2049.66,1024.64C2097.09,1024.64 2135.6,989.946 2135.6,947.211L2135.6,792.351Z" style="fill:white;"/>
    </g>
    <g transform="matrix(5.14009e-17,0.839441,-1.4556,8.91295e-17,1961.5,-292.71)">
        <path d="M2135.6,792.351C2135.6,749.616 2075.44,714.921 2001.34,714.921L1042.9,714.921C968.795,714.921 908.633,749.616 908.633,792.351L908.633,947.211C908.633,989.946 968.795,1024.64 1042.9,1024.64L2001.34,1024.64C2075.44,1024.64 2135.6,989.946 2135.6,947.211L2135.6,792.351Z" style="fill:white;"/>
    </g>
    <g transform="matrix(5.14009e-17,0.839441,-1.4556,8.91295e-17,3570.6,737.256)">
        <path d="M2135.6,792.351C2135.6,749.616 2075.44,714.921 2001.34,714.921L1042.9,714.921C968.795,714.921 908.633,749.616 908.633,792.351L908.633,947.211C908.633,989.946 968.795,1024.64 1042.9,1024.64L2001.34,1024.64C2075.44,1024.64 2135.6,989.946 2135.6,947.211L2135.6,792.351Z" style="fill:white;"/>
    </g>
    <g transform="matrix(1.4556,0,0,3.59839,-677.71,-3361.64)">
        <path d="M1790.38,1257.57C1790.38,1243.69 1762.51,1232.41 1728.18,1232.41L1264.01,1232.41C1229.68,1232.41 1201.81,1243.69 1201.81,1257.57L1201.81,1307.89C1201.81,1321.78 1229.68,1333.05 1264.01,1333.05L1728.18,1333.05C1762.51,1333.05 1790.38,1321.78 1790.38,1307.89L1790.38,1257.57Z" style="fill:rgb(69,114,228);"/>
    </g>
    <g transform="matrix(1.4556,0,0,3.59839,-677.71,-2869.91)">
        <path d="M1790.38,1257.57C1790.38,1243.69 1762.51,1232.41 1728.18,1232.41L1264.01,1232.41C1229.68,1232.41 1201.81,1243.69 1201.81,1257.57L1201.81,1307.89C1201.81,1321.78 1229.68,1333.05 1264.01,1333.05L1728.18,1333.05C1762.51,1333.05 1790.38,1321.78 1790.38,1307.89L1790.38,1257.57Z" style="fill:rgb(69,114,228);"/>
    </g>
</svg>
