<?xml version="1.0" standalone="no"?>
<!DOCTYPE svg PUBLIC "-//W3C//DTD SVG 20010904//EN"
 "http://www.w3.org/TR/2001/REC-SVG-20010904/DTD/svg10.dtd">
<svg version="1.0" xmlns="http://www.w3.org/2000/svg"
 width="3000.000000pt" height="3000.000000pt" viewBox="0 0 3000.000000 3000.000000"
 preserveAspectRatio="xMidYMid meet">
<metadata>
Created by potrace 1.14, written by Peter Selinger 2001-2017
</metadata>
<g transform="translate(0.000000,3000.000000) scale(0.100000,-0.100000)"
fill="#000000" stroke="none">
<path d="M0 15000 l0 -15000 15000 0 15000 0 0 15000 0 15000 -15000 0 -15000
0 0 -15000z m18761 10590 c841 -85 1571 -640 1878 -1429 228 -584 199 -1248
-80 -1810 -348 -704 -1026 -1173 -1808 -1251 -69 -7 -1667 -10 -4822 -10
l-4719 0 0 -1824 c0 -1169 -4 -1861 -10 -1927 -54 -542 -287 -1023 -684 -1406
-1010 -979 -2655 -799 -3441 377 -197 294 -329 663 -365 1019 -6 68 -10 766
-10 2040 0 2064 1 2093 49 2410 72 466 194 860 397 1281 445 919 1175 1649
2094 2094 503 243 1008 381 1570 431 190 16 9788 21 9951 5z m-1021 -6344
c422 -78 727 -232 1006 -510 328 -328 511 -742 531 -1206 22 -516 -176 -1007
-554 -1370 -232 -223 -512 -378 -818 -453 -222 -55 -69 -52 -2905 -52 -2168 0
-2650 2 -2720 14 -404 64 -731 226 -1013 500 -650 633 -730 1636 -189 2364
317 428 798 690 1332 727 58 4 1259 6 2670 6 2400 -2 2571 -3 2660 -20z m5531
-4556 c1062 -107 1912 -957 2019 -2019 6 -68 10 -766 10 -2040 0 -2064 -1
-2093 -49 -2410 -72 -466 -194 -860 -397 -1281 -445 -919 -1175 -1649 -2094
-2094 -421 -203 -815 -325 -1281 -397 -334 -51 -114 -49 -5305 -49 -3286 0
-4865 3 -4935 10 -985 100 -1793 834 -1988 1805 -96 479 -28 995 190 1434 349
705 1025 1173 1808 1251 69 7 1667 10 4822 10 l4719 0 0 1824 c0 1169 4 1861
10 1927 79 794 569 1487 1293 1829 203 96 488 176 708 199 121 12 350 13 470
1z m-5521 -362 c332 -63 578 -169 820 -354 466 -356 732 -921 707 -1504 -20
-464 -203 -878 -531 -1206 -282 -281 -597 -439 -1016 -511 -99 -17 -247 -18
-2730 -18 -2483 0 -2631 1 -2730 18 -419 72 -734 230 -1016 511 -474 473 -648
1156 -458 1796 142 475 489 883 941 1104 206 101 452 166 678 180 28 1 1220 2
2650 1 2353 -1 2608 -2 2685 -17z"/>
</g>
</svg>
