<?xml version="1.0" standalone="no"?>
<!DOCTYPE svg PUBLIC "-//W3C//DTD SVG 20010904//EN"
 "http://www.w3.org/TR/2001/REC-SVG-20010904/DTD/svg10.dtd">
<svg version="1.0" xmlns="http://www.w3.org/2000/svg"
 width="3000.000000pt" height="3000.000000pt" viewBox="0 0 3000.000000 3000.000000"
 preserveAspectRatio="xMidYMid meet">
<metadata>
Created by potrace 1.14, written by Peter Selinger 2001-2017
</metadata>
<g transform="translate(0.000000,3000.000000) scale(0.100000,-0.100000)"
fill="#000000" stroke="none">
<path d="M0 15000 l0 -15000 15000 0 15000 0 0 15000 0 15000 -15000 0 -15000
0 0 -15000z m19844 10284 c109 -19 232 -57 311 -96 326 -163 558 -471 619
-823 24 -134 24 -2504 1 -2637 -54 -308 -233 -580 -495 -752 -89 -59 -149 -88
-256 -125 -193 -66 239 -61 -5551 -61 l-5263 0 0 -2367 c0 -2570 2 -2463 -54
-2636 -56 -170 -137 -306 -256 -431 -177 -186 -384 -297 -635 -340 -78 -14
-248 -16 -1310 -16 -1338 0 -1302 -1 -1487 60 -163 55 -287 130 -416 254 -141
135 -234 279 -291 451 -66 198 -61 -151 -61 4390 0 4506 -4 4191 57 4372 129
387 470 684 868 756 69 13 1028 15 7105 16 6308 1 7034 -1 7114 -15z m-923
-6040 c88 -26 147 -61 214 -128 73 -73 118 -159 135 -256 8 -44 10 -239 8
-615 -3 -532 -4 -552 -25 -606 -59 -156 -187 -274 -339 -313 -56 -14 -434 -16
-3914 -16 -3480 0 -3858 2 -3914 16 -152 39 -280 157 -339 313 -21 54 -22 74
-25 606 -2 376 0 571 8 615 17 97 62 183 135 256 67 67 116 96 205 125 52 17
244 18 3926 18 3531 1 3875 0 3925 -15z m316 -3122 c159 -60 268 -150 335
-278 68 -129 68 -125 68 -844 0 -719 0 -715 -68 -844 -68 -131 -182 -223 -340
-278 l-67 -23 -4165 0 -4165 0 -67 23 c-158 55 -272 147 -340 278 -68 129 -68
125 -68 844 0 719 0 715 68 844 45 87 137 181 215 224 66 35 165 69 217 75 19
2 1898 3 4175 3 l4140 -1 62 -23z m5119 -1137 c249 -44 454 -153 630 -337 124
-129 199 -253 254 -416 65 -195 60 149 60 -4387 0 -4506 4 -4191 -57 -4372
-111 -334 -382 -605 -716 -716 -183 -62 414 -57 -7267 -57 -7730 0 -7085 -5
-7282 60 -390 130 -682 470 -752 875 -24 134 -24 2504 -1 2637 54 308 233 580
495 752 89 59 149 88 256 125 193 66 -239 61 5552 61 l5262 0 0 2368 c0 2569
-2 2462 54 2635 61 184 140 313 280 453 143 142 286 230 461 283 163 49 141
49 1451 50 1070 1 1243 -1 1320 -14z m-5442 -2311 c152 -39 280 -157 339 -313
21 -54 22 -74 25 -606 2 -376 0 -571 -8 -615 -17 -97 -62 -183 -135 -256 -67
-67 -126 -102 -214 -128 -50 -15 -394 -16 -3921 -16 -3527 0 -3871 1 -3921 16
-88 26 -147 61 -214 128 -73 73 -118 159 -135 256 -8 44 -10 239 -8 615 3 532
4 552 25 606 57 152 179 267 328 310 56 17 293 18 3919 18 3487 1 3864 -1
3920 -15z"/>
</g>
</svg>
