<?xml version="1.0" standalone="no"?>
<!DOCTYPE svg PUBLIC "-//W3C//DTD SVG 20010904//EN"
 "http://www.w3.org/TR/2001/REC-SVG-20010904/DTD/svg10.dtd">
<svg version="1.0" xmlns="http://www.w3.org/2000/svg"
 width="3000.000000pt" height="3000.000000pt" viewBox="0 0 3000.000000 3000.000000"
 preserveAspectRatio="xMidYMid meet">
<metadata>
Created by potrace 1.14, written by Peter Selinger 2001-2017
</metadata>
<g transform="translate(0.000000,3000.000000) scale(0.100000,-0.100000)"
fill="#000000" stroke="none">
<path d="M0 15000 l0 -15000 15000 0 15000 0 0 15000 0 15000 -15000 0 -15000
0 0 -15000z m19943 10268 c197 -54 374 -157 517 -298 169 -168 284 -392 320
-625 7 -48 10 -473 8 -1345 l-3 -1275 -28 -95 c-111 -388 -407 -689 -782 -796
-160 -46 132 -44 -5487 -44 l-5278 0 0 -2379 c0 -2592 3 -2445 -56 -2633 -104
-331 -377 -605 -715 -721 -170 -59 -139 -58 -1525 -55 l-1269 3 -100 28 c-431
118 -755 471 -830 903 -13 79 -15 545 -13 4254 l3 4165 27 98 c55 198 157 376
298 517 161 160 350 262 575 310 88 18 257 19 7165 17 l7075 -2 98 -27z
m-1412 -6014 c162 -30 290 -88 411 -185 166 -131 295 -348 328 -550 6 -41 10
-426 10 -1067 0 -1110 2 -1073 -65 -1239 -104 -257 -310 -442 -592 -530 l-88
-28 -3535 0 -3535 0 -88 28 c-282 88 -488 273 -592 530 -67 166 -65 129 -65
1239 0 641 4 1026 10 1067 33 202 162 419 328 550 118 94 235 149 390 181 83
18 234 19 3543 19 3114 1 3465 -1 3540 -15z m5924 -4287 c431 -118 755 -471
830 -903 13 -79 15 -545 13 -4254 l-3 -4165 -27 -98 c-55 -198 -157 -376 -298
-517 -141 -141 -319 -243 -517 -298 l-98 -27 -7100 0 -7100 0 -98 27 c-197 54
-374 157 -517 298 -169 168 -284 392 -320 625 -7 48 -10 473 -8 1345 l3 1275
28 95 c34 119 119 293 188 385 175 232 432 390 717 440 77 13 679 15 5365 15
l5277 0 0 2379 c0 2592 -3 2445 56 2633 121 385 469 689 870 762 66 12 286 14
1359 13 l1280 -2 100 -28z m-5832 -650 c282 -88 488 -273 592 -530 67 -166 65
-129 65 -1239 0 -641 -4 -1026 -10 -1067 -50 -308 -290 -592 -586 -695 -171
-60 85 -56 -3684 -56 -3769 0 -3513 -4 -3684 56 -296 103 -536 387 -586 695
-6 41 -10 426 -10 1067 0 1110 -2 1073 65 1239 114 282 355 481 665 547 55 12
596 14 3575 13 l3510 -2 88 -28z"/>
</g>
</svg>
