<?xml version="1.0" encoding="UTF-8" standalone="no"?>
<!DOCTYPE svg PUBLIC "-//W3C//DTD SVG 1.1//EN" "http://www.w3.org/Graphics/SVG/1.1/DTD/svg11.dtd">
<svg width="100%" height="100%" viewBox="0 0 128 128" version="1.1" xmlns="http://www.w3.org/2000/svg" xmlns:xlink="http://www.w3.org/1999/xlink" xml:space="preserve" xmlns:serif="http://www.serif.com/" style="fill-rule:evenodd;clip-rule:evenodd;stroke-linejoin:round;stroke-miterlimit:2;">
    <rect id="Artboard1" x="0" y="0" width="128" height="128" style="fill:none;"/>
    <g id="Artboard11" serif:id="Artboard1">
        <g transform="matrix(0.785241,1.72314e-21,0,0.664783,14,28.9078)">
            <path d="M127.349,32C127.349,14.339 115.21,0 100.258,0L27.091,0C12.139,0 0,14.339 0,32L0,96C0,113.661 12.139,128 27.091,128L100.258,128C115.21,128 127.349,113.661 127.349,96L127.349,32ZM108.247,32L108.247,96C108.247,101.208 104.667,105.436 100.258,105.436L27.091,105.436C22.682,105.436 19.102,101.208 19.102,96C19.102,96 19.102,32 19.102,32C19.102,26.792 22.682,22.564 27.091,22.564C27.091,22.564 100.258,22.564 100.258,22.564C104.667,22.564 108.247,26.792 108.247,32Z"/>
        </g>
        <g transform="matrix(1.53759,4.50836e-21,0,0.755403,-29.396,14)">
            <path d="M47.654,3.89C47.654,1.743 46.798,0 45.743,0L41.921,0C40.866,0 40.01,1.743 40.01,3.89L40.01,31.404C40.01,33.551 40.866,35.294 41.921,35.294L45.743,35.294C46.798,35.294 47.654,33.551 47.654,31.404L47.654,3.89Z"/>
        </g>
        <g transform="matrix(1.53759,4.50836e-21,0,0.755403,22.604,14)">
            <path d="M47.654,3.89C47.654,1.743 46.798,0 45.743,0L41.921,0C40.866,0 40.01,1.743 40.01,3.89L40.01,31.404C40.01,33.551 40.866,35.294 41.921,35.294L45.743,35.294C46.798,35.294 47.654,33.551 47.654,31.404L47.654,3.89Z"/>
        </g>
        <g transform="matrix(0.785241,1.55184e-21,0,0.70403,14,19.6545)">
            <g transform="matrix(1,0,0,1,69.641,-20.3601)">
                <path d="M31.843,64.312C31.843,61.892 30.082,59.928 27.913,59.928L18.239,59.928C16.069,59.928 14.308,61.892 14.308,64.312L14.308,73.079C14.308,75.499 16.069,77.463 18.239,77.463L27.913,77.463C30.082,77.463 31.843,75.499 31.843,73.079L31.843,64.312Z"/>
            </g>
            <g transform="matrix(1,0,0,1,40.9244,-20.3601)">
                <path d="M31.843,64.312C31.843,61.892 30.082,59.928 27.913,59.928L18.239,59.928C16.069,59.928 14.308,61.892 14.308,64.312L14.308,73.079C14.308,75.499 16.069,77.463 18.239,77.463L27.913,77.463C30.082,77.463 31.843,75.499 31.843,73.079L31.843,64.312Z"/>
            </g>
            <g transform="matrix(1,0,0,1,12.2077,4.88009)">
                <path d="M31.843,64.312C31.843,61.892 30.082,59.928 27.913,59.928L18.239,59.928C16.069,59.928 14.308,61.892 14.308,64.312L14.308,73.079C14.308,75.499 16.069,77.463 18.239,77.463L27.913,77.463C30.082,77.463 31.843,75.499 31.843,73.079L31.843,64.312Z"/>
            </g>
            <g transform="matrix(1,0,0,1,69.641,4.88009)">
                <path d="M31.843,64.312C31.843,61.892 30.082,59.928 27.913,59.928L18.239,59.928C16.069,59.928 14.308,61.892 14.308,64.312L14.308,73.079C14.308,75.499 16.069,77.463 18.239,77.463L27.913,77.463C30.082,77.463 31.843,75.499 31.843,73.079L31.843,64.312Z"/>
            </g>
            <g transform="matrix(1,0,0,1,40.9244,4.88009)">
                <path d="M31.843,64.312C31.843,61.892 30.082,59.928 27.913,59.928L18.239,59.928C16.069,59.928 14.308,61.892 14.308,64.312L14.308,73.079C14.308,75.499 16.069,77.463 18.239,77.463L27.913,77.463C30.082,77.463 31.843,75.499 31.843,73.079L31.843,64.312Z"/>
            </g>
            <g transform="matrix(1,0,0,1,12.2077,30.1202)">
                <path d="M31.843,64.312C31.843,61.892 30.082,59.928 27.913,59.928L18.239,59.928C16.069,59.928 14.308,61.892 14.308,64.312L14.308,73.079C14.308,75.499 16.069,77.463 18.239,77.463L27.913,77.463C30.082,77.463 31.843,75.499 31.843,73.079L31.843,64.312Z"/>
            </g>
            <g transform="matrix(1,0,0,1,40.9244,30.1202)">
                <path d="M31.843,64.312C31.843,61.892 30.082,59.928 27.913,59.928L18.239,59.928C16.069,59.928 14.308,61.892 14.308,64.312L14.308,73.079C14.308,75.499 16.069,77.463 18.239,77.463L27.913,77.463C30.082,77.463 31.843,75.499 31.843,73.079L31.843,64.312Z"/>
            </g>
        </g>
    </g>
</svg>
