<?xml version="1.0" encoding="UTF-8" standalone="no"?>
<!DOCTYPE svg PUBLIC "-//W3C//DTD SVG 1.1//EN" "http://www.w3.org/Graphics/SVG/1.1/DTD/svg11.dtd">
<svg width="100%" height="100%" viewBox="0 0 128 128" version="1.1" xmlns="http://www.w3.org/2000/svg" xmlns:xlink="http://www.w3.org/1999/xlink" xml:space="preserve" xmlns:serif="http://www.serif.com/" style="fill-rule:evenodd;clip-rule:evenodd;stroke-linejoin:round;stroke-miterlimit:2;">
    <rect id="Artboard1" x="0" y="0" width="128" height="128" style="fill:none;"/>
    <g id="Artboard11" serif:id="Artboard1">
        <g transform="matrix(0.85872,0,0,0.678678,9.53073,26.228)">
            <path d="M121.657,52.818C121.657,47.186 118.043,42.612 113.591,42.612L13.271,42.612C8.819,42.612 5.205,47.186 5.205,52.818L5.205,73.23C5.205,78.863 8.819,83.436 13.271,83.436L113.591,83.436C118.043,83.436 121.657,78.863 121.657,73.23L121.657,52.818Z"/>
        </g>
        <g transform="matrix(0.85872,0,0,0.678678,9.53073,57.3739)">
            <path d="M121.657,52.818C121.657,47.186 118.043,42.612 113.591,42.612L13.271,42.612C8.819,42.612 5.205,47.186 5.205,52.818L5.205,73.23C5.205,78.863 8.819,83.436 13.271,83.436L113.591,83.436C118.043,83.436 121.657,78.863 121.657,73.23L121.657,52.818Z"/>
        </g>
        <g transform="matrix(1.17312,0,0,1.61998,-8.84384,-2.7206)">
            <path d="M43.273,9.433C43.273,8.296 41.998,7.372 40.427,7.372L34.734,7.372C33.164,7.372 31.888,8.296 31.888,9.433L31.888,31.537C31.888,32.675 33.164,33.598 34.734,33.598L40.427,33.598C41.998,33.598 43.273,32.675 43.273,31.537L43.273,9.433Z"/>
        </g>
        <g transform="matrix(7.1833e-17,1.17312,-1.61998,9.9195e-17,68.4288,-13.6215)">
            <path d="M43.273,9.433C43.273,8.296 41.998,7.372 40.427,7.372L34.734,7.372C33.164,7.372 31.888,8.296 31.888,9.433L31.888,31.537C31.888,32.675 33.164,33.598 34.734,33.598L40.427,33.598C41.998,33.598 43.273,32.675 43.273,31.537L43.273,9.433Z"/>
        </g>
    </g>
</svg>
