<?xml version="1.0" encoding="UTF-8" standalone="no"?>
<!DOCTYPE svg PUBLIC "-//W3C//DTD SVG 1.1//EN" "http://www.w3.org/Graphics/SVG/1.1/DTD/svg11.dtd">
<svg width="100%" height="100%" viewBox="0 0 512 512" version="1.1" xmlns="http://www.w3.org/2000/svg" xmlns:xlink="http://www.w3.org/1999/xlink" xml:space="preserve" xmlns:serif="http://www.serif.com/" style="fill-rule:evenodd;clip-rule:evenodd;stroke-linejoin:round;stroke-miterlimit:2;">
    <g transform="matrix(0.772655,0.772655,-1.88853,1.88853,500.086,-383.686)">
        <path d="M512,233.985C512,225.728 495.617,219.025 475.437,219.025L36.563,219.025C16.383,219.025 0,225.728 0,233.985C0,242.241 16.383,248.944 36.563,248.944L475.437,248.944C495.617,248.944 512,242.241 512,233.985Z" style="fill:rgb(234,234,234);"/>
    </g>
    <g transform="matrix(-0.772655,0.772655,-1.88853,-1.88853,895.686,500.086)">
        <path d="M512,233.985C512,225.728 495.617,219.025 475.437,219.025L36.563,219.025C16.383,219.025 0,225.728 0,233.985C0,242.241 16.383,248.944 36.563,248.944L475.437,248.944C495.617,248.944 512,242.241 512,233.985Z" style="fill:rgb(234,234,234);"/>
    </g>
</svg>
