<?xml version="1.0" encoding="UTF-8" standalone="no"?>
<!DOCTYPE svg PUBLIC "-//W3C//DTD SVG 1.1//EN" "http://www.w3.org/Graphics/SVG/1.1/DTD/svg11.dtd">
<svg width="100%" height="100%" viewBox="0 0 128 128" version="1.1" xmlns="http://www.w3.org/2000/svg" xmlns:xlink="http://www.w3.org/1999/xlink" xml:space="preserve" xmlns:serif="http://www.serif.com/" style="fill-rule:evenodd;clip-rule:evenodd;stroke-linejoin:round;stroke-miterlimit:2;">
    <g transform="matrix(1,0,0,1,-178,0)">
        <rect id="Artboard2" x="178" y="0" width="128" height="128" style="fill:none;"/>
        <g id="Artboard21" serif:id="Artboard2">
            <g transform="matrix(0.773388,0,0,0.78125,191.659,13.6594)">
                <path d="M129.301,32C129.301,14.339 114.817,0 96.976,0L32.325,0C14.484,0 0,14.339 0,32L0,96C0,113.661 14.484,128 32.325,128L96.976,128C114.817,128 129.301,113.661 129.301,96L129.301,32Z" style="fill:none;"/>
                <clipPath id="_clip1">
                    <path d="M129.301,32C129.301,14.339 114.817,0 96.976,0L32.325,0C14.484,0 0,14.339 0,32L0,96C0,113.661 14.484,128 32.325,128L96.976,128C114.817,128 129.301,113.661 129.301,96L129.301,32Z"/>
                </clipPath>
                <g clip-path="url(#_clip1)">
                    <g transform="matrix(1.10228,0,0,1.12126,-11.7906,-15.5215)">
                        <path d="M7.481,113.758L43.592,69.918L63.636,91.345L93.258,49.411L128,96L128,128L-0.895,128L7.481,113.758ZM15.3,118.867L44.045,83.969C44.045,83.969 56.697,97.493 56.697,97.493C58.625,99.555 61.416,100.646 64.275,100.457C67.133,100.267 69.746,98.816 71.369,96.519L93.466,65.238C93.466,65.238 118.616,98.965 118.616,98.965C118.616,98.965 118.616,118.867 118.616,118.867L15.3,118.867Z" style="fill:rgb(233,233,233);"/>
                    </g>
                </g>
                <path d="M129.301,32C129.301,14.339 114.817,0 96.976,0L32.325,0C14.484,0 0,14.339 0,32L0,96C0,113.661 14.484,128 32.325,128L96.976,128C114.817,128 129.301,113.661 129.301,96L129.301,32ZM113.785,32L113.785,96C113.785,105.184 106.253,112.64 96.976,112.64C96.976,112.64 32.325,112.64 32.325,112.64C23.048,112.64 15.516,105.184 15.516,96L15.516,32C15.516,22.816 23.048,15.36 32.325,15.36L96.976,15.36C106.253,15.36 113.785,22.816 113.785,32Z" style="fill:rgb(233,233,233);"/>
            </g>
            <g transform="matrix(0.767843,0,0,0.774118,196.551,13.9961)">
                <path d="M36.112,21.179C45.053,21.179 52.313,28.438 52.313,37.38C52.313,46.321 45.053,53.58 36.112,53.58C27.171,53.58 19.911,46.321 19.911,37.38C19.911,28.438 27.171,21.179 36.112,21.179ZM36.112,26.998C41.829,26.998 46.446,31.663 46.446,37.38C46.446,43.096 41.829,47.761 36.112,47.761C30.395,47.761 25.778,43.096 25.778,37.38C25.778,31.663 30.395,26.998 36.112,26.998Z" style="fill:rgb(233,233,233);"/>
            </g>
        </g>
    </g>
</svg>
