<?xml version="1.0" encoding="UTF-8" standalone="no"?>
<!DOCTYPE svg PUBLIC "-//W3C//DTD SVG 1.1//EN" "http://www.w3.org/Graphics/SVG/1.1/DTD/svg11.dtd">
<svg width="100%" height="100%" viewBox="0 0 128 128" version="1.1" xmlns="http://www.w3.org/2000/svg" xmlns:xlink="http://www.w3.org/1999/xlink" xml:space="preserve" xmlns:serif="http://www.serif.com/" style="fill-rule:evenodd;clip-rule:evenodd;stroke-linejoin:round;stroke-miterlimit:2;">
    <rect id="Artboard1" x="0" y="0" width="128" height="128" style="fill:none;"/>
    <g id="Artboard11" serif:id="Artboard1">
        <g transform="matrix(0.876508,0,0,1,1.01205,-1.05902)">
            <path d="M36.742,16.953C36.742,14.635 34.595,12.753 31.95,12.753L22.366,12.753C19.721,12.753 17.574,14.635 17.574,16.953L17.574,113.165C17.574,115.483 19.721,117.365 22.366,117.365L31.95,117.365C34.595,117.365 36.742,115.483 36.742,113.165L36.742,16.953Z"/>
        </g>
        <g transform="matrix(0.876508,0,0,1,40.1958,-1.05902)">
            <path d="M36.742,16.953C36.742,14.635 34.595,12.753 31.95,12.753L22.366,12.753C19.721,12.753 17.574,14.635 17.574,16.953L17.574,113.165C17.574,115.483 19.721,117.365 22.366,117.365L31.95,117.365C34.595,117.365 36.742,115.483 36.742,113.165L36.742,16.953Z"/>
        </g>
        <g transform="matrix(6.12323e-17,1,-0.369335,2.26153e-17,48.8448,10.486)">
            <path d="M36.742,38.702C36.742,24.38 32.448,12.753 27.158,12.753C21.868,12.753 17.574,24.38 17.574,38.702L17.574,91.416C17.574,105.738 21.868,117.365 27.158,117.365C32.448,117.365 36.742,105.738 36.742,91.416L36.742,38.702Z"/>
        </g>
        <g transform="matrix(6.12323e-17,1,-0.369335,2.26153e-17,88.0286,56.6993)">
            <path d="M36.742,38.702C36.742,24.38 32.448,12.753 27.158,12.753C21.868,12.753 17.574,24.38 17.574,38.702L17.574,91.416C17.574,105.738 21.868,117.365 27.158,117.365C32.448,117.365 36.742,105.738 36.742,91.416L36.742,38.702Z"/>
        </g>
        <g transform="matrix(6.12323e-17,1,-0.369335,2.26153e-17,127.212,27.2579)">
            <path d="M36.742,38.702C36.742,24.38 32.448,12.753 27.158,12.753C21.868,12.753 17.574,24.38 17.574,38.702L17.574,91.416C17.574,105.738 21.868,117.365 27.158,117.365C32.448,117.365 36.742,105.738 36.742,91.416L36.742,38.702Z"/>
        </g>
        <g transform="matrix(0.876508,0,0,1,79.3796,-1.05902)">
            <path d="M36.742,16.953C36.742,14.635 34.595,12.753 31.95,12.753L22.366,12.753C19.721,12.753 17.574,14.635 17.574,16.953L17.574,113.165C17.574,115.483 19.721,117.365 22.366,117.365L31.95,117.365C34.595,117.365 36.742,115.483 36.742,113.165L36.742,16.953Z"/>
        </g>
    </g>
</svg>
