<?xml version="1.0" encoding="UTF-8" standalone="no"?>
<!DOCTYPE svg PUBLIC "-//W3C//DTD SVG 1.1//EN" "http://www.w3.org/Graphics/SVG/1.1/DTD/svg11.dtd">
<svg width="100%" height="100%" viewBox="0 0 512 512" version="1.1" xmlns="http://www.w3.org/2000/svg" xmlns:xlink="http://www.w3.org/1999/xlink" xml:space="preserve" xmlns:serif="http://www.serif.com/" style="fill-rule:evenodd;clip-rule:evenodd;stroke-linejoin:round;stroke-miterlimit:2;">
    <g transform="matrix(1.21409,0,0,1.21409,-71.4824,-117.736)">
        <path d="M227.139,96.974C320.005,96.974 395.4,172.37 395.4,265.236C395.4,358.102 320.005,433.497 227.139,433.497C134.273,433.497 58.877,358.102 58.877,265.236C58.877,172.37 134.273,96.974 227.139,96.974ZM227.139,169.327C280.072,169.327 323.048,212.302 323.048,265.236C323.048,318.169 280.072,361.145 227.139,361.145C174.205,361.145 131.23,318.169 131.23,265.236C131.23,212.302 174.205,169.327 227.139,169.327Z" style="fill:white;"/>
    </g>
    <g transform="matrix(1.90384,-1.90384,1.07312,1.07312,-421.3,375.435)">
        <path d="M225.118,322.32C225.118,314.548 221.562,308.239 217.182,308.239L201.308,308.239C196.927,308.239 193.371,314.548 193.371,322.32L193.371,450.728C193.371,458.499 196.927,464.809 201.308,464.809L217.182,464.809C221.562,464.809 225.118,458.499 225.118,450.728L225.118,322.32Z" style="fill:white;"/>
    </g>
</svg>
