<?xml version="1.0" encoding="UTF-8" standalone="no"?>
<!DOCTYPE svg PUBLIC "-//W3C//DTD SVG 1.1//EN" "http://www.w3.org/Graphics/SVG/1.1/DTD/svg11.dtd">
<svg width="100%" height="100%" viewBox="0 0 512 512" version="1.1" xmlns="http://www.w3.org/2000/svg" xmlns:xlink="http://www.w3.org/1999/xlink" xml:space="preserve" xmlns:serif="http://www.serif.com/" style="fill-rule:evenodd;clip-rule:evenodd;stroke-linejoin:round;stroke-miterlimit:2;">
    <g transform="matrix(1,0,0,1,-562,0)">
        <rect id="Artboard2" x="562" y="0" width="512" height="512" style="fill:none;"/>
        <g id="Artboard21" serif:id="Artboard2">
            <g transform="matrix(1.19363,0,0,1.19363,429.925,-148.611)">
                <path d="M363.268,144.55C338.078,139.608 312.168,139.608 286.978,144.55L280.455,191.029C257.631,197.92 236.71,209.998 219.33,226.319L175.817,208.729C158.942,228.073 145.987,250.511 137.672,274.798L174.662,303.686C169.218,326.898 169.218,351.055 174.662,374.267L137.672,403.155C145.987,427.441 158.942,449.88 175.817,469.224L219.33,451.634C236.71,467.955 257.631,480.033 280.455,486.924L286.978,533.403C312.168,538.345 338.078,538.345 363.268,533.403L369.791,486.924C392.615,480.033 413.535,467.955 430.915,451.634L474.429,469.224C491.304,449.88 504.259,427.441 512.574,403.155L475.583,374.267C481.028,351.055 481.028,326.898 475.583,303.686L512.574,274.798C504.259,250.511 491.304,228.073 474.429,208.729L430.915,226.319C413.535,209.998 392.615,197.92 369.791,191.029L363.268,144.55ZM325.123,259.723C368.864,259.723 404.376,295.235 404.376,338.976C404.376,382.717 368.864,418.23 325.123,418.23C281.382,418.23 245.87,382.717 245.87,338.976C245.87,295.235 281.382,259.723 325.123,259.723Z"/>
            </g>
        </g>
    </g>
</svg>
