<?xml version="1.0" encoding="UTF-8" standalone="no"?>
<!DOCTYPE svg PUBLIC "-//W3C//DTD SVG 1.1//EN" "http://www.w3.org/Graphics/SVG/1.1/DTD/svg11.dtd">
<svg width="100%" height="100%" viewBox="0 0 128 128" version="1.1" xmlns="http://www.w3.org/2000/svg" xmlns:xlink="http://www.w3.org/1999/xlink" xml:space="preserve" xmlns:serif="http://www.serif.com/" style="fill-rule:evenodd;clip-rule:evenodd;stroke-linejoin:round;stroke-miterlimit:2;">
    <g transform="matrix(1,0,0,1,-178,0)">
        <rect id="Artboard2" x="178" y="0" width="128" height="128" style="fill:none;"/>
        <g id="Artboard21" serif:id="Artboard2">
            <path d="M292,39C292,25.202 280.798,14 267,14L217,14C203.202,14 192,25.202 192,39L192,89C192,102.798 203.202,114 217,114L267,114C280.798,114 292,102.798 292,89L292,39ZM245.741,89.169C245.741,88.136 244.903,87.298 243.87,87.298L240.13,87.298C239.097,87.298 238.259,88.136 238.259,89.169L238.259,105.13C238.259,106.162 239.097,107 240.13,107L243.87,107C244.903,107 245.741,106.162 245.741,105.13L245.741,89.169ZM268.438,95.728C269.168,96.458 270.353,96.458 271.083,95.728L273.728,93.083C274.458,92.353 274.458,91.168 273.728,90.438L262.442,79.152C261.712,78.422 260.527,78.422 259.797,79.152L257.152,81.797C256.422,82.527 256.422,83.712 257.152,84.442L268.438,95.728ZM226.848,84.442C227.578,83.712 227.578,82.527 226.848,81.797L224.203,79.152C223.473,78.422 222.288,78.422 221.558,79.152L210.272,90.438C209.542,91.168 209.542,92.353 210.272,93.083L212.917,95.728C213.647,96.458 214.832,96.458 215.562,95.728L226.848,84.442ZM242,45.171C252.392,45.171 260.829,53.608 260.829,64C260.829,74.392 252.392,82.829 242,82.829C231.608,82.829 223.171,74.392 223.171,64C223.171,53.608 231.608,45.171 242,45.171ZM283.13,67.741C284.162,67.741 285,66.903 285,65.87L285,62.13C285,61.097 284.162,60.259 283.13,60.259L267.169,60.259C266.136,60.259 265.298,61.097 265.298,62.13L265.298,65.87C265.298,66.903 266.136,67.741 267.169,67.741L283.13,67.741ZM216.831,67.741C217.864,67.741 218.702,66.903 218.702,65.87L218.702,62.13C218.702,61.097 217.864,60.259 216.831,60.259L200.87,60.259C199.838,60.259 199,61.097 199,62.13L199,65.87C199,66.903 199.838,67.741 200.87,67.741L216.831,67.741ZM221.558,48.848C222.288,49.578 223.473,49.578 224.203,48.848L226.848,46.203C227.578,45.473 227.578,44.288 226.848,43.558L215.562,32.272C214.832,31.542 213.647,31.542 212.917,32.272L210.272,34.917C209.542,35.647 209.542,36.832 210.272,37.562L221.558,48.848ZM273.728,37.562C274.458,36.832 274.458,35.647 273.728,34.917L271.083,32.272C270.353,31.542 269.168,31.542 268.438,32.272L257.152,43.558C256.422,44.288 256.422,45.473 257.152,46.203L259.797,48.848C260.527,49.578 261.712,49.578 262.442,48.848L273.728,37.562ZM245.741,22.87C245.741,21.838 244.903,21 243.87,21L240.13,21C239.097,21 238.259,21.838 238.259,22.87L238.259,38.831C238.259,39.864 239.097,40.702 240.13,40.702L243.87,40.702C244.903,40.702 245.741,39.864 245.741,38.831L245.741,22.87Z" style="fill:rgb(233,233,233);"/>
        </g>
    </g>
</svg>
