<?xml version="1.0" encoding="UTF-8" standalone="no"?>
<!DOCTYPE svg PUBLIC "-//W3C//DTD SVG 1.1//EN" "http://www.w3.org/Graphics/SVG/1.1/DTD/svg11.dtd">
<svg width="100%" height="100%" viewBox="0 0 128 128" version="1.1" xmlns="http://www.w3.org/2000/svg" xmlns:xlink="http://www.w3.org/1999/xlink" xml:space="preserve" xmlns:serif="http://www.serif.com/" style="fill-rule:evenodd;clip-rule:evenodd;stroke-linecap:round;stroke-linejoin:round;stroke-miterlimit:1.5;">
    <g transform="matrix(1,0,0,1,-178,0)">
        <rect id="Artboard2" x="178" y="0" width="128" height="128" style="fill:none;"/>
        <g id="Artboard21" serif:id="Artboard2">
            <g transform="matrix(1.00087,1.00087,-0.700432,0.700432,50.4295,-217.226)">
                <path d="M242,4.149C242,1.859 240.699,0 239.096,0L233.289,0C231.686,0 230.385,1.859 230.385,4.149L230.385,123.851C230.385,126.141 231.686,128 233.289,128L239.096,128C240.699,128 242,126.141 242,123.851L242,4.149Z" style="fill:rgb(233,233,233);"/>
            </g>
            <path d="M277.776,50.114C290.587,56.967 301.314,64 301.314,64C301.314,64 260.489,90.764 242.993,90.764C242.66,90.764 242.33,90.753 242,90.73C241.67,90.753 241.34,90.764 241.007,90.764C239.903,90.764 238.706,90.658 237.432,90.458L242.824,85.065C253.804,84.643 262.642,75.805 263.065,64.824L277.776,50.114ZM206.224,77.886C193.413,71.033 182.686,64 182.686,64C182.686,64 223.511,37.236 241.007,37.236C241.34,37.236 241.67,37.247 242,37.27C242.33,37.247 242.66,37.236 242.993,37.236C244.097,37.236 245.294,37.342 246.568,37.542L241.176,42.935C230.196,43.357 221.358,52.195 220.935,63.176L206.224,77.886Z" style="fill:rgb(233,233,233);stroke:rgb(233,233,233);stroke-width:5.81px;"/>
        </g>
    </g>
</svg>
