<?xml version="1.0" encoding="UTF-8" standalone="no"?>
<!DOCTYPE svg PUBLIC "-//W3C//DTD SVG 1.1//EN" "http://www.w3.org/Graphics/SVG/1.1/DTD/svg11.dtd">
<svg width="100%" height="100%" viewBox="0 0 306 128" version="1.1" xmlns="http://www.w3.org/2000/svg" xmlns:xlink="http://www.w3.org/1999/xlink" xml:space="preserve" xmlns:serif="http://www.serif.com/" style="fill-rule:evenodd;clip-rule:evenodd;stroke-linejoin:round;stroke-miterlimit:2;">
    <rect id="Artboard1" x="0" y="0" width="128" height="128" style="fill:none;"/>
    <g id="Artboard11" serif:id="Artboard1">
        <g transform="matrix(0.99056,0,0,0.99056,1.20831,1.5708)">
            <path d="M63.39,33.908C63.749,33.883 64.109,33.87 64.472,33.87C83.53,33.87 128,63.024 128,63.024C128,63.024 83.53,92.178 64.472,92.178C64.109,92.178 63.749,92.165 63.39,92.14C63.031,92.165 62.671,92.178 62.309,92.178C43.25,92.178 -1.22,63.024 -1.22,63.024C-1.22,63.024 43.25,33.87 62.309,33.87C62.671,33.87 63.031,33.883 63.39,33.908ZM63.39,40.061C76.064,40.061 86.353,50.35 86.353,63.024C86.353,75.698 76.064,85.988 63.39,85.988C50.716,85.988 40.427,75.698 40.427,63.024C40.427,50.35 50.716,40.061 63.39,40.061ZM63.39,54.068C68.333,54.068 72.346,58.081 72.346,63.024C72.346,67.967 68.333,71.98 63.39,71.98C58.447,71.98 54.434,67.967 54.434,63.024C54.434,58.081 58.447,54.068 63.39,54.068Z" style="fill:rgb(233,233,233);"/>
        </g>
    </g>
    <rect id="Artboard2" x="178" y="0" width="128" height="128" style="fill:none;"/>
    <g id="Artboard21" serif:id="Artboard2">
        <g transform="matrix(0.700432,0.700432,-0.700432,0.700432,121.391,-146.264)">
            <path d="M242,2.904C242,1.301 240.699,0 239.096,0L233.289,0C231.686,0 230.385,1.301 230.385,2.904L230.385,125.096C230.385,126.699 231.686,128 233.289,128L239.096,128C240.699,128 242,126.699 242,125.096L242,2.904Z" style="fill:rgb(233,233,233);"/>
        </g>
        <g transform="matrix(0.99056,0,0,0.99056,2.88861,1.5708)">
            <path d="M280.105,47.761C294.173,55.271 306,63.024 306,63.024C306,63.024 261.53,92.178 242.472,92.178C242.109,92.178 241.749,92.165 241.39,92.14C241.031,92.165 240.671,92.178 240.309,92.178C239.009,92.178 237.591,92.042 236.077,91.789L241.884,85.982C254.165,85.723 264.088,75.8 264.348,63.518L280.105,47.761ZM204.75,79.384C189.791,71.554 176.78,63.024 176.78,63.024C176.78,63.024 221.25,33.87 240.309,33.87C240.671,33.87 241.031,33.883 241.39,33.908C241.749,33.883 242.109,33.87 242.472,33.87C244.501,33.87 246.819,34.201 249.342,34.792L243.934,40.2C243.098,40.108 242.249,40.061 241.39,40.061C228.716,40.061 218.427,50.35 218.427,63.024C218.427,63.883 218.474,64.732 218.566,65.568L204.75,79.384Z" style="fill:rgb(233,233,233);"/>
        </g>
    </g>
</svg>
