<?xml version="1.0" encoding="UTF-8" standalone="no"?>
<!DOCTYPE svg PUBLIC "-//W3C//DTD SVG 1.1//EN" "http://www.w3.org/Graphics/SVG/1.1/DTD/svg11.dtd">
<svg width="100%" height="100%" viewBox="0 0 128 128" version="1.1" xmlns="http://www.w3.org/2000/svg" xmlns:xlink="http://www.w3.org/1999/xlink" xml:space="preserve" xmlns:serif="http://www.serif.com/" style="fill-rule:evenodd;clip-rule:evenodd;stroke-linejoin:round;stroke-miterlimit:2;">
    <g transform="matrix(1,0,0,1,-178,0)">
        <rect id="Artboard2" x="178" y="0" width="128" height="128" style="fill:none;"/>
        <g id="Artboard21" serif:id="Artboard2">
            <g transform="matrix(0.700432,0.700432,-0.700432,0.700432,121.391,-146.264)">
                <path d="M242,2.904C242,1.301 240.699,0 239.096,0L233.289,0C231.686,0 230.385,1.301 230.385,2.904L230.385,125.096C230.385,126.699 231.686,128 233.289,128L239.096,128C240.699,128 242,126.699 242,125.096L242,2.904Z" style="fill:rgb(233,233,233);"/>
            </g>
            <g transform="matrix(0.99056,0,0,0.99056,2.88861,1.5708)">
                <path d="M280.105,47.761C294.173,55.271 306,63.024 306,63.024C306,63.024 261.53,92.178 242.472,92.178C242.109,92.178 241.749,92.165 241.39,92.14C241.031,92.165 240.671,92.178 240.309,92.178C239.009,92.178 237.591,92.042 236.077,91.789L241.884,85.982C254.165,85.723 264.088,75.8 264.348,63.518L280.105,47.761ZM204.75,79.384C189.791,71.554 176.78,63.024 176.78,63.024C176.78,63.024 221.25,33.87 240.309,33.87C240.671,33.87 241.031,33.883 241.39,33.908C241.749,33.883 242.109,33.87 242.472,33.87C244.501,33.87 246.819,34.201 249.342,34.792L243.934,40.2C243.098,40.108 242.249,40.061 241.39,40.061C228.716,40.061 218.427,50.35 218.427,63.024C218.427,63.883 218.474,64.732 218.566,65.568L204.75,79.384Z" style="fill:rgb(233,233,233);"/>
            </g>
        </g>
    </g>
</svg>
